# xmcd
#
# Track frame offsets:
#	150
#	18962
#	34987
#	47912
#	63900
#	82600
#	102312
#	118337
#	136200
#	153087
#	166862
#	180912
#
# Disc length: 2612 seconds
#
# Revision: 1
# Processed by: cddbd v1.5.1PL0 Copyright (c) Steve Scherf et al.
# Submitted via: EasyCDDAExtractor 5.0.7
#
DISCID=8a0a320c
DTITLE=Vince Blues Band - Entry Boogie
DYEAR=1992
DGENRE=Blues
TTITLE0=Entry Boogie
TTITLE1=Wait On Time
TTITLE2=After Blues
TTITLE3=Dust My Broom
TTITLE4=Ramblin' On My Mind
TTITLE5=Big Boss Man
TTITLE6=Talkin' Woman Blues
TTITLE7=I'm A Good Man
TTITLE8=Try To Deceive Me
TTITLE9=Don't Wanna Loose You
TTITLE10=Madison Blues
TTITLE11=When The Lights Go Down
EXTD=
EXTT0=
EXTT1=
EXTT2=
EXTT3=
EXTT4=
EXTT5=
EXTT6=
EXTT7=
EXTT8=
EXTT9=
EXTT10=
EXTT11=
PLAYORDER=
